<?xml version="1.0" encoding="utf-8"?>
<!-- Generator: Adobe Illustrator 16.0.0, SVG Export Plug-In . SVG Version: 6.00 Build 0)  -->
<!DOCTYPE svg PUBLIC "-//W3C//DTD SVG 1.1//EN" "http://www.w3.org/Graphics/SVG/1.1/DTD/svg11.dtd">
<svg version="1.1" id="Layer_1" xmlns="http://www.w3.org/2000/svg" xmlns:xlink="http://www.w3.org/1999/xlink" x="0px" y="0px"
	 width="841.68px" height="595.199px" viewBox="0 0 841.68 595.199" enable-background="new 0 0 841.68 595.199"
	 xml:space="preserve">
<desc>Generated with Qt</desc>
<g>
	<path vector-effect="none" fill="none" stroke="#000000" stroke-linecap="square" stroke-linejoin="bevel" d="M191.12,229.978
		c5.225-1.6,8.72,3.094,13.334,2.59c1.003,3.772-1.538,5.366,0.943,8.118c-2.068,1.748-1.633,4.457,2.221,3.463
		c3.587-0.926,7.714,3.619,10.611-0.896c3.053-4.759,12.163-0.845,16.873-0.102c0.046,6.298-10.615,7.344-8.28,14.677
		c-1.136,0.833-7.082,11.896-2.189,14.605c-4.046,4.711-9.592,1.246-14.084,3.811c-2.268,1.295-2.984,8.26-7.684,7.67
		c-1.498-0.188-2.89-14.712-8.43-5.613c-0.139,6.815,8.161,7.559,0.412,11.449c-1.388-1.03-1.265-0.058-2.396-0.185
		c-0.392,0.013-0.312-0.594-1.426-0.06c-0.657-0.212-0.313-0.307-1.215-0.43c0.484-1.153,0.165-2.782,0.623-4.265
		c-3.602-0.76-3.175-5.121-6.622-5.434c-4.164-0.378-1.257,3.392-2.737,3.579c-2.64,0.335-10.997-3.528-12.808-5.36
		c-5.462-5.525-1.6-6.555,1.399-9.792c0.718-0.775,1.84-0.277,2.521-1.01c0.772-0.832-0.279-3.123,0.023-3.417
		c1.505-1.469,2.297-2.778,4.712-3.129c0.328,0.33-0.363,0.664-0.033,0.995c3.346-2.688-0.089-8.356,2.635-10.035
		c-3.518-5.343-1.434-7.127,0.659-12.688C183.041,230.913,179.856,228.023,191.12,229.978"/>
	<path vector-effect="none" fill="none" stroke="#000000" stroke-linecap="square" stroke-linejoin="bevel" d="M377.472,174.192
		c1.633,0.509,0.888,1.461,2.706,0.857c0.467,1.794,1.14,2.526,0.479,4.929c2.819,1.539,4.378-1.289,7.257-0.521
		c4.635,1.236,2.488,3.161,3.521,6.937c1.264,4.622,4.412,5.349,7.41,7.472c2.296,1.626,2.201,2.011,3.719,4.502
		c-0.258-0.058,0.244-0.548,0.682-0.492c0.281,4.316-0.834,7.681-2.214,11.923c-1.294,3.979-3.604,12.234-5.979,13.499
		c1.919,3.372-1.745,3.675-1.688,4.404c0.254,3.287,1.534,1.66,2.898,3.798c2.68,4.199,4.182,5.618,6.83,9.049
		c0.037,1.284,0.077,2.065,0.42,3.701c-0.439,0.05-1.396,0.164-1.757,0.323c1.312,0.411,2.436,1.877,3.792,2.441
		c-1.647,2.617-4.003,5.307-6.416,6.057c2.594,2.963,1.034,3.994-0.483,6.823c-2.194,0.222-2.196,0.129-0.625,2.008
		c-0.031,0.5-0.47,2.229-1.659,3.626c-0.673-0.749,0.147,3.218-2.175,6.526c0.191-0.02-0.647-0.829-0.775-0.89
		c-1.684,0.47-0.047,2.377-2.468-0.617c-0.556,2.159-9.913,4.748-13.275,5.131c0.367-2.418,0.266-3.114-2.158-3.491
		c0.329,3.085-8.675,8.906-10.764,10.406c-3.332,2.391-5.687,5.93-9.849,4.153c0.199,0.673,0.487,1.247,0.632,1.979
		c-3.339,2.491-7.238,1.024-9.764,2.015c-2.918,1.144-7.401,5.327-9.977,7.534c1.378-4.523,0.77-6.749,3.465-11.948
		c1.501-2.896,5.183-9.647,4.93-12.782c-0.336-4.161-8.535-5.548-11.609-8.379c-2.191-2.019-4.431-8.882-8.758-9.078
		c-3.709-0.167-8.916,9.563-11.135,12.216c-2.967,3.547-1.774,6.083-6.789,3.433c-2.926-1.546,1.556-4.374-0.481-6.466
		c-0.261-0.268-5.537-0.512-5.914-0.543c-2.593-0.217-9.668-1.687-10.165,2.838c-0.051-0.677-0.453-1.763-0.458-2.36
		c-0.386,0.207-14.236-3.138-14.219-3.101c-0.705-1.511,0.271-5.562,2.295-5.69c1.588-0.1,1.534-7.893,4.858-9.386
		c4.102-1.841,5.905-3.374,5.159-8.282c-8.295-0.047-13.107,1.411-19.918,5.604c-3.605,2.219-7.642,2.623-11.136,4.48
		c-1.475,0.784-1.334,2.526-2.565,3.087c-3.963,1.805-8.907,3.223-14.049-0.101c-5.426-3.508-6.046-6.64-1.665-11.589
		c1.112-1.256,3.451-0.958,4.364-1.941c0.845-0.911,1.205-4.114,1.022-3.938c4.425-4.298,4.74-1.14,9.182-3.43
		c7.005-3.612,12.381-13.923,16.029-18.174c1.243-1.448-0.054-2.426,4.484-3.798c3.024-0.915,5.981-0.304,9.095,0.013
		c0.207,0.662,0.569,3.803,0.665,4.431c-2.947,1.201-0.651,3.511,0.492,6.255c-0.316,0.271-0.879,0.108-1.268,0.486
		c0.331,0.524,1.104,1.343,1.59,1.845c3.798-0.53,9.148-7.488,12.039-9.186c3.073-1.805,6.814-1.442,8.092-2.024
		c1.117-0.509,3.574-2.64,3.596-2.654c3.687-2.382,8.931-5.522,12.884-5.32c2.547,0.13,8.538,5.231,9.264-0.137
		c10.263-0.407,5.419-7.201,12.233-10.739c3.257-1.691,7.541-2.454,10.865-4.537c3.635-2.277,4.62-4.753,7.27-7.505
		c2.493-2.588,9.6-7.032,7.329-0.173c2.246-0.254,3.269-1.936,5.245-3.133c0.207-0.125,0.301-1.785,1.708-2.272
		C374.632,174.015,376.267,174.663,377.472,174.192"/>
	<path vector-effect="none" fill="none" stroke="#000000" stroke-linecap="square" stroke-linejoin="bevel" d="M325.803,257.084
		c4.286,3.222,6.833,8.051,10.354,10.533c7.119,5.02,9.867,3.015,5.277,13.831c-1.276,3.006-3.578,5.937-4.621,8.969
		c-1.07,3.108-0.05,4.674-1.021,7.857c2.576-2.207,7.059-6.39,9.977-7.534c2.526-0.99,6.425,0.476,9.764-2.015
		c-0.145-0.732-0.434-1.306-0.632-1.979c4.162,1.777,6.517-1.762,9.849-4.153c2.089-1.5,11.093-7.321,10.764-10.406
		c2.424,0.377,2.524,1.073,2.158,3.491c3.363-0.384,12.72-2.972,13.275-5.131c2.421,2.994,0.784,1.087,2.468,0.617
		c0.647-0.397,0.575,0.91,0.775,0.89c0.388-0.769,1.077-1.75,1.571-2.722c-0.088,3.519,0.626,7.141,0.57,10.121
		c-0.037,1.956,0.673,5.781-0.143,7.545c-0.626,1.354-2.802,0.103-3.481,1.142c-3.325,5.083-8.192,8.612-6.361,15.146
		c-2.118,0.642-7.448,0.305-8.841,1.267c-1.026,0.709-1.125,3.376-1.503,3.568c-3.464,1.764-1.738,0.834-5.177,0.935
		c-2.192,0.064-2.854-2.993-4.818,1.115c1.065,2.348,0.46,8.77,0.176,12.431c-0.534,6.878-2.085,3.596-6.374,5.275
		c-1.828,0.716-3.391,1.091-3.909,3.699c-0.305,0.22-0.725-0.479-0.972-0.274c-0.305,2.551-2.167,3.696-2.436,7.29
		c-0.709-1.287-1.274-1.852-1.626-3.043c0.064-0.014,0.759,0.37,0.78,0.297c-0.203-0.281-0.697-0.738-0.636-1.128
		c-0.043,0.004-0.452,0.607-0.59,0.724c-2.595-2.817-10.899-1.716-6.951,2.27c-0.035,0.043-0.075,0.282-0.035,0.325
		c-0.233,0.206-2.162,1.952-2.215,1.983c-0.022-0.021-0.029-0.013-0.021,0.023c-4.151,0.67-3.723,3.66-3.451,7.204
		c-0.377,0.734-0.859,0.14,0.112,1.736c-0.091,0.089-0.879-0.354-1.105-0.048c0.156,0.863,0.316,0.623,0.247,1.691
		c-0.309,0.017-0.183-0.813-0.43-0.727c-0.593,0.753-0.69,1.087-1.255,1.675c0.374,0.563,0.574,2.002,1.282,2.974
		c-0.037,0-0.055,0.021-0.054,0.065c-0.903-0.238-0.257-0.1-0.843-0.809c-1.2,3.213,1.468,4.518,1.23,6.67
		c-0.139,1.254-1.999,2.787-3.025,4.598c-3.01,5.309-0.289,6.907,0.41,12.254c-4.601,1.475,1.838,5.461,0.233,9.336
		c2.936,2.467-7.957,6.978-6.439,11.53c-7.743-4.135-12.986-12.016-19.788-17.307c-5.29-4.115-13.807-15.97-20.028-16.877
		c0.4,0.114,1.512-0.018,1.751,0.029c-1.78-0.587-1.289-5.095-4.3-7.98c-3.526-3.38-9.152-4.158-12.558-7.176
		c-5.103-4.521-6.527-8.676-14.062-11.804c-3.969-1.647-6.25-1.899-7.515-5.174c-1.546-3.999,1.042-3.185,2.147-7.727
		c0.904-3.715-0.997-12.688,6.15-13.231c-1.575-1.323,0.215-1.011-1.886-1.807c1.537-2.812,1.25-0.443-0.056-3.781
		c0.787,0.014,1.178-0.088,1.474,0.58c1.684-2.928,3.689-2.562,3.555-4.642c2.575-1.831-0.513-3.212,0.56-5.667
		c1.078-2.466,3.818-0.862,3.52-4.136c1.443-1.058,2.794-5.286,0.274-2.788c0.073-1.407-2.636-3.885-1.99-5.323
		c0.914-2.035,4.058-1.738,4.985-3.229c0.788,0.698,1.526,0.912,2.51,1.661c1.707-1.625,1.493-1.15,3.172-0.819
		c-1.056,4.768,4.561,5.073,6.833,8.02c2.421-2.504,4.47,0.178,7.792,1.173c0.862,1.774,5.379,4.084,7.522,3.554
		c4.716-1.166,3.445-4.712,5.839-7.742c8.824,4.918,10.159,1.706,8.024-6.732c-1.776-7.02-0.448-11.724,4.492-17.151
		C318.873,259.542,322.874,254.922,325.803,257.084"/>
	<path vector-effect="none" fill="none" stroke="#000000" stroke-linecap="square" stroke-linejoin="bevel" d="M190.013,163.222
		c4.942,2.304,7.51,9.055,11.112,10.958c1.676,0.885,4.594,0.015,6.423,0.724c1.176,0.455,2.511,2.686,3.45,3.171
		c2.41,1.248,6.521,4.31,8.087,4.995c2.797,1.223,7.787,3.061,10.327,1.953c-0.33,0.847-0.564,0.305-0.35,1.304
		c3.515-3.151,5.852-0.361,3.012,3.716c-2.544,3.652-10.548,7.504-14.408,10.024c-8.548,5.583-16.955,12.055-23.713,16.646
		c-5.044,3.426-9.096,7.08-13.445,8.913c4.192,1.737,1.142,9.658,0.1,12.71c-1.922,5.629-4.916,7.057-1.088,12.871
		c-2.725,1.679,0.71,7.348-2.635,10.035c-0.331-0.332,0.361-0.666,0.033-0.995c-4.608,0.67-4.466,5.017-6.546,7.243
		c-3.719,3.979-7.354,3.199-2.169,10.054c-6.99-3.144-46.404-16.544-37.014-22.764c1.069,0.77,0.984-0.103,3.838-0.512
		c0.051-0.782,0.019-1.893,0.014-2.835c-3.768,1.521-3.738-4.987-7.061-6.312c1.43,2.249,2.817,4.911,3.733,7.375
		c0.208-0.37-0.226-1.587-0.3-1.937c0.436,1.319,0.588,1.027,0.43,2.2c-2.951-6.384-9.604-14.747-16.45-17.03
		c4.135,0.656,5.753-2.169,9.669-1.802c-0.522-0.745-0.963-3.348-1.404-4.013c2.03-0.701,6.166-3.547,7.277-6.788
		c1.087-3.171-0.909-3.25,0.552-6.158c0.956-1.902,2.55,1.34,3.562-2.562c0.384-1.482-1.555-2.415-1.562-3.485
		c-0.02-3.114,1.659-0.221,2.282-1.953c0.673-1.873,1.651-5.791,3.17-7.99c0.647,1.559,0.176,0.129,1.56,1.125
		c-0.19,0.492-0.795,0.572-0.791,1.023c1.359-1.396,2.258-3.167,2.824-5.187c3.361,2.348,9.734-3.248,11.601-5.291
		c2.017-2.207,4.001-7.154,7.403-10.527c2.523-2.501,7.291-5.396,10.104-7.837c1.401-1.216,6.565-5.778,8.896-6.957
		c0.889-0.449,2.048-1.709,2.938-2.295C185.006,168.487,187.667,164.466,190.013,163.222"/>
	<path vector-effect="none" fill="none" stroke="#000000" stroke-linecap="square" stroke-linejoin="bevel" d="M465.204,286.566
		c5.396-1.748,8.972,4.218,13.607,4.813c3.024,0.388,2.426-2.415,6.182-0.203c1.057,0.623,2.14,1.359,3.27,1.953
		c-0.766,0.548-1.358,2.221-1.551,2.413c0.356-0.089,0.346-0.922,0.518-0.923c0.931,3.375,4.14,7.021-1.103,7.647
		c2.405,2.831,6.057,1.706,8.757-0.766c2.881,1.678,7.345,3.069,8.89,5.217c-0.556,0.277-1.481,0.676-2.05,0.909
		c5.969,1.475,11.072,4.825,15.7,5.344c3.476,0.39,7.412-1.91,9.78-2.631c5.514-1.679,7.462-0.874,11.267,0.329
		c-0.473-0.149,0.325,0.935,0.277,0.89c1.223,0.436,1.994,0.941,3.557-0.819c3.059,2.054,1.045,1.068,3.491,0.852
		c0.38,0.661,0.569,1.739,0.867,2.422c0.479-1.16-0.163-0.981,1.032-1.551c0.732,4.15,6.513,7.921,9.853,10.865
		c-0.565,0.002-1.626,0.247-2.533,0.134c-0.066,0.145-0.137,0.286-0.212,0.427c1.006,1.203,0.35,1.897,1.316,3.293
		c-2.933,1.306-3.037,7.055-1.492,8.345c-0.147,0.823-0.551,1.281-0.561,2.09c3.786-6.086,5.79-0.227,6.646,2.517
		c0.463,1.482,2.622,0.836,2.611,2.468c-0.008,1.219-2.051,0.813-1.803,2.501c0.244,1.663-0.741,1.971,0.675,4.368
		c1.17,1.981,6.206,6.805,9.444,7.827c6.373,2.012,0.262-1.037,5.108-4.508c-0.077,1.284,0.578,2.626,0.352,4.322
		c2.459,0.251,5.927,0.721,7.195,3.035c2.089-2.347,4.483,0.088,5.567,2.702c-1.002-0.348-1.995,0.062-2.44,0.032
		c1.301,1.227,2.023,1.991,3.26,4.021c0.824-2.396,5.667-4.094,3.041-0.649c3.456,1.799,6.766,6.069,6.462-2.266
		c6.978-0.106,0.663,7.808,3.732,8.783c-3.925,9.847,7.384,16.433,6.92,24.303c-3.375-0.241-3.459,3.87-1.192,5.78
		c-7.275,0.262-14.672,1.644-22.275,0.766c-5.92-0.684-19.797-0.471-24.126-4.812c-5.832-5.852-15.257-3.988-23.387-4.051
		c-1.891-0.015-16.011,0.637-9.53,3.169c-2.95,8.772-26.118-1.26-24.317,9.46c-2.075-1.03-2.933-0.68-4.597-2.653
		c-6.444,4.623-18.976-6.385-15.708-13.38c1.634-3.497,2.35-0.102,3.803-1.767c1.26-1.443,0.646-3.982,2.63-5.248
		c8.545-5.45-5.194-22.714-12.928-20.86c-2.533,0.607-0.787,3.216-1.61,3.784c-2.195,1.517-3.602,1.981-5.543,3.286
		c-4.009,2.693-5.441,4.091-11.475,4.587c-3.011,0.247-15.253-0.446-14.383,3.067c-1.398,2.167-1.197,2.605,1.294,2.889
		c1.778,5.798-4.733,4.59-9.702,2.846c-6.083-2.135-13.07-3.088-18.914-5.477c-4.81-1.967-1.999-1.429-5.712-4.609
		c-2.778-2.379-5.11-4.297-8.473-6.22c0.014-0.014-0.048-0.229,0.01-0.187c2.271-1.965,5.532-0.045,9.122-0.095
		c2.16-0.03,5.843-1.489,9.535-0.658c0.094,0.402-0.459,0.951-0.482,1.444c5.901-2.89,2.646-6.707,5.617-11.059
		c-6.927,0.562-7.288-2.467-2.221-7.188c-0.869-1.244-2.916-3.21-4.055-4.215c1.707-0.655,0.991-0.355,2.377-0.114
		c0.205-0.374-0.169-1.221,0.01-1.298c9.108,0.529,7.096-4.938,11.217-9.189c-0.702-0.897-1.246-2.582-1.984-3.348
		c1.012-0.294,0.342,0.164,1.121,0.678c1.114-2.059,1.17-2.791,2.279-4.124c-2.024-2.036-0.164-0.865-0.946-2.638
		c2.096,2.05,3.534,0.126,4.737-2.419C449.93,328.876,459.009,285.117,465.204,286.566"/>
	<path vector-effect="none" fill="none" stroke="#000000" stroke-linecap="square" stroke-linejoin="bevel" d="M407.562,304.702
		c-1.081,1.096-0.805,2.771-4.105,2.739c0.138,0.213,3.213,9.545,3.43,9.213c-2.522,3.872-10.709-0.881-10.278,4.643
		c0.272,3.493,8.445,9.237,2.773,10.316c-22.799,4.337,2.107,9.468,8.187,15.24c-2.654,1.886-7.185,4.063-0.852,6.371
		c-5.042,2.307,0.497,4.991,0.277,8.378c-0.16,2.463-2.177,4.087-2.204,6.944c-3.788-0.761-3.021,1.948-4.316,3.816
		c-0.242,0.35-2.802,1.281-2.855,1.84c-0.232,2.453,4.619,3.123,5.989,6.48c2.147,5.261-1.433,4.083-1.676,8.652
		c-0.083,1.546,3.95,2.771,2.518,5.068c0.632-1.014-11.503,1.835-11.945,2.009c-3.853,1.521-5.104,2.13-8.06,4.844
		c-3.419,3.14-2.824,1.237-3.896,6.221c-0.659,3.065,0.144,4.893-0.329,7.902c0.484-3.077-3.816,5.663-2.582,3.978
		c-2.4,3.277-3.631,3.624-6.729,5.711c-5.829,3.927-5.76,5.188-5.026,10.012c-8.672-6.914-9.131-16.525-21.458-20.284
		c6.328-5.76-14.662-11.585-16.15-16.46c-1.625-5.324,5.876-6.61,7.313-10.099c0.7-1.699-0.506-1.126-1.041-1.575
		c1.605-3.875-4.834-7.861-0.233-9.336c-0.654-5.002-3.473-7.022-0.752-12.147c0.914-1.721,3.257-3.288,3.379-4.3
		c0.301-2.5-2.508-3.682-1.241-7.074c0.585,0.709-0.06,0.57,0.843,0.809c0-0.044,0.018-0.065,0.054-0.065
		c-0.708-0.972-0.908-2.41-1.282-2.974c0.565-0.588,0.663-0.922,1.255-1.675c0.247-0.087,0.122,0.743,0.43,0.727
		c0.069-1.068-0.09-0.828-0.247-1.691c0.226-0.306,1.014,0.137,1.105,0.048c-0.971-1.597-0.489-1.002-0.112-1.736
		c-0.272-3.544-0.7-6.534,3.451-7.204c-0.008-0.036-0.001-0.044,0.021-0.023c0.053-0.031,1.981-1.777,2.215-1.983
		c-0.04-0.043,0-0.282,0.035-0.325c-3.948-3.985,4.356-5.087,6.951-2.27c0.138-0.116,0.547-0.72,0.59-0.724
		c-0.061,0.39,0.433,0.847,0.636,1.128c-0.021,0.073-0.716-0.311-0.78-0.297c0.352,1.191,0.917,1.756,1.626,3.043
		c0.268-3.594,2.131-4.739,2.436-7.29c0.247-0.204,0.667,0.494,0.972,0.274c1.404-7.077,7.229-1.304,9.829-4.075
		c2.164-2.308,0.243-9.726,0.531-13.004c0.138-1.569,0.445-2.786-0.253-4.326c1.964-4.108,2.625-1.051,4.818-1.115
		c3.438-0.101,1.713,0.829,5.177-0.935c0.583-0.297-0.087-2.857,1.076-3.629c1.498-0.993,7.018-0.524,9.268-1.206
		c-1.578-5.628,3.719-15.115,9.357-15.613c3.425-0.303,4.485,0.791,4.437,3.732C400.042,297.294,403.414,300.817,407.562,304.702"/>
	<path vector-effect="none" fill="none" stroke="#000000" stroke-linecap="square" stroke-linejoin="bevel" d="M278.954,250.515
		c-0.567,3.108-6.752,9.97-3.587,12.795c0.381,0.34,3.626-1.126,4.532-0.864c2.74,0.793,5.626,4.554,8.98,2.758
		c0.005,0.597,0.408,1.683,0.458,2.36c0.509-4.646,10.415-3.028,13.269-1.933c4.154,1.593,1.837-0.512,2.312,4.841
		c0.321,3.627,4.727,3.399,6.165,1.154c1.088,3.127,3.308,15.225,1.848,16.564c-2.641,2.422-6.791-1.004-8.917-2.194
		c-2.381,3.025-1.123,6.545-5.79,7.73c-2.176,0.552-6.699-1.745-7.57-3.539c-3.322-0.995-5.371-3.677-7.792-1.173
		c-2.273-2.947-7.89-3.252-6.833-8.02c-1.679-0.331-1.465-0.805-3.172,0.819c-0.984-0.749-1.722-0.962-2.51-1.661
		c-0.927,1.49-4.071,1.194-4.985,3.229c-0.646,1.438,2.062,3.916,1.99,5.323c2.52-2.498,1.169,1.73-0.274,2.788
		c0.298,3.274-2.442,1.67-3.52,4.136c-1.073,2.455,2.015,3.836-0.56,5.667c0.134,2.079-1.872,1.714-3.555,4.642
		c-0.296-0.668-0.687-0.566-1.474-0.58c1.306,3.338,1.593,0.969,0.056,3.781c2.101,0.796,0.311,0.483,1.886,1.807
		c-3.036,0.23-5.805,4.254-6.588,7.501c-0.339,1.407,1.68,2.662,1.477,4.263c-0.143,1.126-1.73,1.612-2.092,2.688
		c-1.082,3.213-3.36,4.33-1.271,8.046c-0.013-0.073-0.941-0.28-0.878-0.396c1.306-5.256-26.103-11.538-31.442-12.53
		c0.817-0.917,1.128-2.533,2.057-3.427c-6.824-2.371-1.917-8.099,0.865-11.915c0.554-0.761-1.332-2.074-0.576-2.637
		c4.593-3.417,18.476-0.876,24.883-1.846c-2.531-3.487,2.389-10.836,3.082-11.75c0.873-5.318,2.488-7.39-0.167-12.434
		c-1.549-2.944-6.02-5.048-6.008-7.859c0.014-3.455,4.648-4.038,6.365-8.18c1.255-3.029,0.408-5.858,3.339-8.622
		c3.035-2.861,6.972-3.643,11.678-5.773c8.549-3.869,11.91-7.389,22.34-7.329C288.081,246.044,282.28,244.792,278.954,250.515"/>
	<path vector-effect="none" fill="none" stroke="#000000" stroke-linecap="square" stroke-linejoin="bevel" d="M555.086,460.935
		c1.989,7.267,0.535,11.032,0.131,17.797c-0.083,1.384-0.317,1.254,0.153,2.435c1.458,3.657-0.695,1.235,2.904,2.51
		c2.938,1.04,9.825-1.856,12.697-3.044c0.075,0.481,0.104,0.792,0.235,1.193c0.311,0.303,3.198,1.019,4.395,1.519
		c3.064,1.28,6.177,5.531,9.513,4.923c-1.287,3.804,2.373,2.389,3.123,4.319c0.519,1.333-0.047,2.951,0.303,4.821
		c0.811,4.333-1.142,6.658,0.519,9.522c-4.391,1.916-0.019,1.243,0.085,3.055c0.149,2.605-0.5,4.432-0.495,6.169
		c0.003,0.861-0.369,5.447-0.238,7.256c0.25,3.457,0.845,6.46,0.577,9.953c-0.046,0.603,2.352,0.598,2.344,1.644
		c-0.006,0.742-3.068,1.679-2.773,2.741c0.757,2.727,0.5,4.314,4.162,5.392c-8.021,3.453-15.631-2.076-24.312-0.062
		c0.119-0.562-8.482-5.889-11.71-6.145c0.755-2.346,0.658-1.794-0.324-4.649c0.296,0.151,1.278,0.837,1.464,1
		c-0.864-2.15-2.561-3.589-2.018-6.095c0.272-1.259,3.158-2.686,3.736-4.229c0.655-1.749,0.895-5.334,0.873-7.247
		c-0.012-1.065-2.274-0.665-2.285-1.461c-0.014-1.017,1.098-1.791,1.037-2.747c-0.085-1.33,0.292-3.228,0.429-4.62
		c0.628-6.396,1.952-12.04-5.75-14.086c-5.42-1.44-10.723-0.541-16.019-1.646c-2.765-0.577-5.831-2.265-8.305-3.628
		c-5.494-3.027-2.984-1.278-2.609-5.758c0.255-3.045,3.339-10.362,3.941-12.665c1.186-4.527,1.995-6.957,4.332-10.191
		c1.735,5.163,10.363-7.869,15.87-8.634C563.215,448.59,552.52,456.528,555.086,460.935"/>
	<path vector-effect="none" fill="none" stroke="#000000" stroke-linecap="square" stroke-linejoin="bevel" d="M456.263,141.82
		c1.991,1.617,9.159,0.618,13.054,0.45c-0.373,2.863,0.664,5.807-1.719,8.333c4.38,3.341,13.941,13.111,17.444,12.502
		c2.04,10.648,1.622,18.967,5.943,27.488c0.443,0.875,0.831,1.957,1.05,3.064c-0.032-0.035,1.001-0.058,0.951-0.084
		c-0.571,0.842-0.728,2.429-1.415,3.41c2.844,1.839,4.573,4.287,7.163,6.312c3.918,3.063,2.644,1.818,1.405,7.26
		c-0.842,3.7-0.952,12.551,2.631,13.748c0.007,0.89-0.606,0.594,0.423,1.567c-1.487,1.312-0.562,0.674-1.401,2.152
		c-1.9,0.985-4.309,1.148-4.694,3.045c-0.619,3.046,3.927,6.545-0.521,7.13c-0.796,1.869-0.633,3.694,1.219,5.32
		c0.439-0.278,0.176-0.726,0.772-1.063c0.059,0.041,0.118,0.083,0.177,0.124c-1.234,1.974-2.434,3.693-1.239,5.998
		c-0.328,0.193-1.467,0.128-1.248-0.069c-1.231,1.865-2.667,4.328-2.061,6.859c-0.138-0.218,0.081-0.923,0.117-0.936
		c-1.68,1.201-1.807,0.458-2.624,3.029c-0.164-0.046,0.187-0.612-0.767-0.711c-0.397,0.61-0.592,1.156-1.408,2.195
		c0.344,0.146,0.802-0.649,1.069-0.125c-0.105,0.102-0.91,1.173-0.945,1.349c-0.607-0.56-0.063-0.367-1.227-0.814
		c-0.824,0.989-2.025,2.67-1.035,4.982c-1.826,0.367-3.039,1.46-3.958,3.253c-1.733-0.366-2.475,1.31-3.319,3.038
		c-2.076-0.613-2.926,0.917-3.723,2.55c-1.05-0.824-1.764,0.586-3.54,1.946c-0.957-2.198-0.552-0.616-1.683-1.51
		c3.935,6.387-4.964,4.123-1.998,6.709c-1.486,4.401-5.301,4.175-7.318,8.666c-1.261,2.806-2.767,6.058-3.809,8.733
		c-1.938,4.975-3.001,7.922-6.083,12.74c-2.097,3.278-3.758,10.462-6.099,12.205c-1.609,1.198-3.918,1.126-4.818,0.554
		c-1.203,2.545-2.642,4.469-4.737,2.419c0.782,1.772-1.078,0.602,0.946,2.638c-1.109,1.333-1.165,2.065-2.279,4.124
		c-0.779-0.514-0.109-0.972-1.121-0.678c0.738,0.766,1.282,2.45,1.984,3.348c-4.121,4.252-2.108,9.719-11.217,9.189
		c-0.179,0.077,0.195,0.924-0.01,1.298c-1.386-0.241-0.67-0.541-2.377,0.114c1.139,1.005,3.186,2.971,4.055,4.215
		c-5.067,4.722-4.706,7.75,2.221,7.188c-2.971,4.352,0.284,8.169-5.617,11.059c0.023-0.493,0.576-1.042,0.482-1.444
		c-1.432-0.322-3.532-0.004-4.955-0.118c0.013,0.001-1.351,1.489-1.949,1.562c-0.232,0.028-1.029-1.701-1.402-1.68
		c-1.215,0.069-2.339,2.058-4.079,1.843c-1.588-0.196-2.347-2.273-3.338-2.583c-4.405-1.374-1.628,4.333-1.956-2.793
		c-0.052-1.126,2.886-1.306,1.061-3.107c-0.609-0.601-2.073-2.001-2.065-2.189c0.094-2.488,0.043-3.485,2.04-4.398
		c-6.333-2.308-1.802-4.485,0.852-6.371c-6.079-5.772-30.985-10.903-8.187-15.24c6.248-1.188-2.957-6.45-2.731-9.775
		c0.346-5.104,5.121-2.672,9.286-4.717c0.561-0.275-1.361-7.954-2.48-9.68c9.061-0.58-3.413-10.25-3.318-16.038
		c0.086-5.221-2.76-0.278-3.977-3.819c-0.735-2.14-1.104-9.612-0.892-11.792c0.235-2.416,0.652-8.332,0.921-9.197
		c0.05-0.161-1.764-3.223,0.173-1.068c1.189-1.397,1.628-3.125,1.659-3.626c-1.571-1.879-1.569-1.786,0.625-2.008
		c1.518-2.83,3.077-3.86,0.483-6.823c2.413-0.75,4.768-3.44,6.416-6.057c-1.355-0.564-2.479-2.031-3.792-2.441
		c0.36-0.16,1.318-0.273,1.757-0.323c-0.343-1.636-0.383-2.417-0.42-3.701c-2.648-3.431-4.15-4.85-6.83-9.049
		c-1.329-2.083-2.613-0.548-2.898-3.72c-0.071-0.796,3.617-1.094,1.688-4.482c4.726-2.516,5.335-25.305,12.365-20.636
		c4.496-4.373,6.146-6.544,13.216-7.485c0.156-0.411-0.81-0.319-0.821-0.476c2.336-0.639,0.889-0.759,1.894-0.219
		c0.43,0.154,0.221-0.542,0.642-0.404c0.014,0.014,0.029,0.026,0.046,0.036c0.18,0.521-0.573,0.583-0.551,0.881
		c0.018,0.01,0.035,0.021,0.052,0.033c0.352-0.981,1.057,0.262,0.578-1.705c0-0.01,0.727,0.36,0.999-0.04
		c-0.212-0.754-0.701-0.489-0.778-1.353c0.627-0.216,2.283-0.419,3.143-0.701c0.04,0,0.081-0.002,0.121-0.006
		c0.138,1.484,0.983,2.321,1.001,2.406c-0.218,1.364-0.341,1.137,0.307,2.252c1.896,0.062,6.345,0.398,6.676-1.62
		c1.644-1.857,1.819-1.957,0.551-4.196c0.014-0.054,0.031-0.106,0.055-0.157c1.149-0.511,0.883-0.743-0.406-1.6
		c-0.723-4.003,3.135-9.076,5.438-11.58c0.936,0.409,1.944,0.391,2.432,0.629c0.565-1.646,0.789-3.801,0.46-4.968
		c3.492-0.936,4.956-5.074,8.688-7.697c-1.176-1.062-1.426-2.663-0.756-4.326c-0.101-0.02-0.169-0.072-0.205-0.156
		c-0.71,0.1-0.599-0.029-1.392-0.059c1.045-3.345,2.679-7.564,1.395-10.311C451.563,147.208,454.362,144.475,456.263,141.82"/>
	<path vector-effect="none" fill="none" stroke="#000000" stroke-linecap="square" stroke-linejoin="bevel" d="M489.225,368.5
		c7.627,2.035,4.345,16.591,0.981,20.575c-2.038,2.415-7.281-0.656-3.735,6.698c2.881,5.977,8.047,13.903,14.942,8.956
		c2.376,2.279,5.868,4.309,8.927,6.03c4.416,2.485,8.066,1.919,12.28,3.902c3.752,1.766,6.053,3.227,4.538,8.176
		c-1.273,4.161-2.743,1.412-5.719,2.197c-4.766,1.258-11.046,1.221-13.701,5.018c-2.597,3.713-1.101,14.901-3.178,21.174
		c-3.304,9.982-15.82,16.675-25.625,17.069c-3.584,0.145-9.384-1.644-11.236,2.159c-2.023,4.153-4.359,7.347-7.075,10.74
		c-2.744,3.429-6.816,12.353-11.602,8.057c0.196-0.609,0.104-0.682,0.098-1.517c-0.618-0.198-3.938-1.552-5.271-1.862
		c0.768,0.136,1.672,0.358,2.344,0.48c0.034,0.005,0.048-0.326-0.065-0.329c-3.874,0.256-7.658-3.409-10.68-6.133
		c-3.667-3.307-7.596-6.05-13.947-8.085c-10.795-3.457-10.819-4.923-20.524-10.624c-5.368-3.154-13.662-8.893-20.815-12.502
		c0.057-0.028,0.102-0.071,0.134-0.127c3.785-1.727-11.256-9.867-13.281-12.643c-3.498-4.795-2.312-5.211,2.474-8.382
		c1.822-1.207,3.763-2.741,5.699-4.137c3.577-2.579,1.131-4.219,2.002-7.374c0.679-2.461,4.9,0.568,2.093-4.552
		c-0.808-1.474,1.262-7.816,2.441-9.43c3.502-4.793,15.042-8.39,20.83-7.353c3.864,0.692,1.498-3.502-0.093-4.714
		c-1.497-1.142,3.279-5.433,1.754-8.19c-4.759-8.606-8.202-3.439-3.625-9.692c1.307-1.786,2.265-3.974,4.104-4.46
		c4.46,2.55,9.5,10.464,13.142,10.748c6.849,0.533,13.523,3.3,19.957,5.558c4.969,1.744,11.48,2.952,9.702-2.846
		c-2.491-0.283-2.692-0.722-1.294-2.889c-0.948-3.831,14.728-2.754,17.966-3.449c5.924-1.271,5.301-2.582,9.047-6.034
		c-0.26,0.239,5.097-3.506,4.527-3.279C480.936,364.167,484.455,365.1,489.225,368.5"/>
	<path vector-effect="none" fill="none" stroke="#000000" stroke-linecap="square" stroke-linejoin="bevel" d="M301.517,136.555
		c6.22-0.756,15.014,6.146,20.368,8.911c3.143,1.623,11.053,3.537,13.103,5.871c2.471,2.812,0.792,8.164,4.273,11.116
		c-0.55,0.969-1.85,2.8-2.533,3.602c-3.755-2.021-8.851,9.177-3.445,12.477c-1.734,0.578-2.454,1.358-4.462,1.711
		c0.491,1.008,0.005,0.883,0.062,2.445c-0.163-0.087,0.038-1.1-0.482-0.923c-0.644,1.096-0.263,0.98-1.535,1.108
		c0,0.159,0.853,0.062,0.796,0.78c-4.601,1.401-2.06,8.168-6.833,9.408c1.312,0.833,1.895,2.108,3.013,3.214
		c-2.45-0.517-14.483,12.576-16.901,13.464c-4.726,1.736-6.697,0.499-12.47,3.684c-2.567,1.417-7.592,8.054-11.175,8.554
		c-0.487-0.501-1.26-1.321-1.59-1.845c0.389-0.378,0.952-0.215,1.268-0.486c-1.143-2.745-3.438-5.055-0.492-6.255
		c-0.096-0.628-0.458-3.769-0.665-4.431c-5.949-0.604-10.581-0.037-13.647,3.325c-0.678,0.744-0.933,0.346-0.86,2.242
		c0.171,4.457-9.182,10.589-12.318,13.649c-3.352,3.27-5.867,0.458-8.729,2.522c-3.27,2.358-2.164,5.059-4.603,7.615
		c-5.745,6.022-9.856,2.889-16.587,2.827c-5.293-0.049-6.76,2.774-11.245,3.918c-0.048,0.012-8.93-0.241-8.623-0.062
		c-1.92-1.122-0.524-3.709,0.192-4.311c-2.484-2.762,0.089-4.345-0.943-8.118c-2.509,0.274-3.98-0.894-6.458-2.25
		c-2.455-1.344-4.183,0.191-6.375-0.07c-4.713-0.563-8.334-1.454-11.114-4.622c5.702-2.404,13.198-9.224,18.773-12.799
		c8.113-5.203,17.323-12.055,26.229-18.422c2.2-1.573,7.667-3.292,8.234-6.223c0.882-4.561-2.918-3.436-4.682-1.855
		c-0.215-0.999,0.02-0.457,0.35-1.304c-2.456,1.071-7.486-0.646-10.215-1.852c-5.887-2.6-9.294-8.363-16.613-8.887
		c-3.506-0.25-8.164-9.007-12.57-11.062c3.884-1.673,7.457-5.133,7.233-8.182c3.943,0.867,4.123-3.887,5.2-6.898
		c0.513,0.096,0.355,0.583,0.817,0.723c5.296-4.666,7.896-11.656,13.424-13.819c6.444-2.521,6.338-2.315,6.233-10.856
		c-0.078-6.349-0.954-6.599,3.846-9.987c3.107-2.193,5.936-2.772,8.62-3.799c3.522-1.348,6.414-2.099,8.551-2.116
		c3.653-0.029,9.181,2.093,12.442-3.513c6.485,1.3,1.287,2.781,0.321,5.514c-0.877,2.484-1.499,4.25,0.035,6.556
		c1.102-0.353,2.203-0.203,3.309-0.411c-1.324,4.041-2.455,3.246-1.572,7.228c0.262,1.183,5.635-0.733,2.646,4.586
		c3.806-2.742,8.571-5.332,12.452-8.521c-1.1,3.723-1.589,7.076-0.121,10.54c0.642,1.514,2.281,6.127,1.185,8.281
		c5.259-0.339,12.376-2.057,16.488-1.963C294.894,136.67,295.872,139.709,301.517,136.555"/>
	<path vector-effect="none" fill="none" stroke="#000000" stroke-linecap="square" stroke-linejoin="bevel" d="M323.961,40.115
		c4.89,1.293,2.989,4.291,3.307,5.374c0.171,0.583,2.369,6.244,2.251,8.104c2.842-1.42,0.611-4.253,2.836-5.773
		c4.805-3.282,6.426,1.629,10.1,4.199c-10.789,5.482,0.793,8.809,2.57,3.26c3.286,3.562,4.463,3.792,7.729,5.528
		c2.716,1.444,5.371,0.757,5.418,4.709c-9.245,0.11,2.209,7.898-3.719,11.562c0.246,0.181,1.387,0.551,1.416,0.589
		c-0.068,0.339-1.188,4.565-1.265,4.423c0.98,1.813,3.217,1.618,3.994,2.712c1.029,1.451,1.812,5.389,3.168,5.944
		c-0.887,2.256,0.209,2.846,0.303,4.848c0.084,1.788-0.557,3.892-0.876,5.757c5.856-8.343,6.14,4.802,5.098,8.254
		c-1.532,5.076-3.07,8.112-0.677,13.953c1.205,2.941,3.246,5.868,5.819,5.959c0.472,1.426,1.165,1.87,0.69,3.869
		c3.254,3.093-2.103,8.798-1.536,14.797c0.443,4.688,2.359,2.623-0.075,8.146c-1.69,3.836-3.271,8.976-5.835,12.829
		c-1.563,2.349-3.623,4.204-4.916,6.937c-1.512,3.196-1.471,7.392-4.474,10.103c-2.211,1.996-8.438,3.664-11.348,4.841
		c-5.521,2.235-5.039,1.848-6.767,6.067c-1.618,3.951-2.023,5.319-7.995,5.555c-0.64,4.716-8.468,1.489-11.546-0.795
		c3.286-1.284,2.208-6.438,6.217-5.581c-1.117-1.109-1.699-2.384-3.013-3.218c4.771-1.236,2.235-8.006,6.833-9.409
		c0.057-0.715-0.796-0.624-0.796-0.775c1.267-0.13,0.895-0.019,1.535-1.112c0.521-0.177,0.318,0.835,0.482,0.922
		c-0.056-1.56,0.429-1.438-0.061-2.445c2.008-0.353,2.731-1.134,4.462-1.712c-5.41-3.295-0.312-14.495,3.445-12.476
		c0.683-0.802,1.982-2.631,2.533-3.599c-2.674-2.273-3.733-6.581-4.144-10.034c-0.358-3.006-8.739-3.909-11.327-5.792
		c-4.683-3.406-14.618-9.592-20.421-10.079c-3.759-0.315-8.747,4.335-11.271,0.564c-0.349-0.521-14.938,1.262-17.471,1.425
		c1.159-2.311-0.529-6.724-1.162-8.206c-1.49-3.488-0.994-6.888,0.105-10.608c-3.88,3.191-8.646,5.781-12.452,8.522
		c2.989-5.321-2.383-3.399-2.647-4.587c-0.882-3.978,0.247-3.19,1.573-7.228c-1.106,0.208-2.207,0.058-3.309,0.411
		c-1.533-2.307-0.91-4.073-0.035-6.553c0.967-2.739,6.161-4.218-0.329-5.524c-4.24,7.253-10.078,2.174-14.272,2.962
		c-6.53,1.227-12.28,6.323-19.296,8.205c-0.045-3.49-1.542-11.021,0.074-14.287c0.38-0.769,5.171-3.747,6.456-5.388
		c0.942-1.203,2.715-4.837,2.858-4.969c6.722-6.182,10.732-1.023,17.048-3.216c0.072-3.767,2.61,0.957,4.21,0.08
		c0.83-0.454,6.091-6.118,6.186-6.441c1.125-3.818-2.167-4.654-2.167-8.742c0-1.699,3.229-5.402,3.583-7.338
		c0.754-4.114,1.089-8.734,1.677-12.99c1.097-7.936,0.209-2.465,5.789-5.525c0.246,0.846-0.239,0.812-0.345,1.314
		c2.639,0.811,7.384-3.545,7.946-5.2c2.392,0.566,3.819,0.585,5.311-1.116c0.566,1.071,1.53,1.428,2.07,2.6
		c4.042-1.891,5.592,1.178,6.307,4.439c0.903,4.12-4.025,6.265,3.119,5.088c7.629-1.257,11.235-7.774,19.499-7.993
		c1.661-0.044,1.609,1.293,1.816,1.972c1.522-2.61,8.311-1.646,5.526-5.22C320.82,41.901,322.757,40.561,323.961,40.115"/>
	<path vector-effect="none" fill="none" stroke="#000000" stroke-linecap="square" stroke-linejoin="bevel" d="M250.552,253.921
		c0.188,3.294,0.203,6.307-2.486,9.324c-2.227,2.498-6.303,3.491-4.232,8.03c0.729,1.599,5.011,3.163,6.292,6.076
		c1.92,4.371,0.035,7.109-0.701,11.592c-0.693,0.913-5.613,8.263-3.082,11.75c-6.051,0.916-20.286-1.671-24.789,1.486
		c-1.097,0.769,1.081,2.175,0.482,2.996c-2.782,3.816-7.689,9.544-0.865,11.915c-2.028,7.333-10.596-0.125-13.866-2.054
		c-4.477-2.641-8.32-3.602-8.956-6.97c-0.137-0.726,1.963-3.171,1.947-4.81c-0.014-1.448-2.146-4.777-2.938-5.945
		c-4.194-6.179-11.327-9.368-17.108-13.621c2.424-8.747,5.533,0.137,10.18,1.118c-0.458,1.483-0.139,3.111-0.623,4.265
		c0.902,0.123,0.559,0.218,1.215,0.43c1.113-0.535,1.034,0.073,1.426,0.06c1.132,0.127,1.009-0.845,2.396,0.185
		c7.749-3.89-0.55-4.634-0.412-11.449c5.572-9.152,7.212,5.402,7.952,5.53c5.031,0.874,5.573-5.948,7.896-7.378
		c4.492-2.766,10.289,0.71,14.35-4.02c-4.892-2.708,1.053-13.772,2.189-14.605c-0.57-1.791,0.21-6.827,2.31-8.476
		c3.345-2.626,4.799-0.744,7.58,0.495C242.958,252.631,242.374,254.048,250.552,253.921"/>
	<path vector-effect="none" fill="none" stroke="#000000" stroke-linecap="square" stroke-linejoin="bevel" d="M536.96,461.555
		c-2.127-2.397-3.344-5.103-5.185-7.938c-1.256-1.935-6.21,2.55-7.903,2.761c-3.881,0.482-3.417-0.637-7.283-3.915
		c-2.852-2.418-7.325-6.209-10.886-5.288c-0.029-5.08-0.107-20.126,5.188-20.25c5.64-0.132,13.894-0.299,15.562-3.639
		c5.794-11.602-14.453-7.991-18.683-14.324c-7.806-11.689,19.777-2.773,22.557-11.038c-6.48-2.532,7.64-3.184,9.53-3.169
		c8.13,0.062,17.555-1.801,23.387,4.051c4.329,4.342,18.206,4.129,24.126,4.812c7.129,0.823,16.423-2.148,22.696-0.463
		c-0.436,0.095-2.247,1.094-3.208,1.323c0.56,0.486,1.157,0.952,1.721,1.458c-3.196,1.952-3.815,5.022-3.357,8.951
		c-7.857-6.057,2.183,14.775,5.04,6.155c-1.068,2.487-0.873,4.863,1.353,5.973c-3.984,1.424-2.623,6.141-6.154,8.561
		c2.188-4.601,0.435-5.902-4.271-2.628c-2.379,1.656-2.852,3.502-2.638,6.38c0.303,4.085,0.788,7.453-0.675,11.476
		c-0.154,0.424-1.426,3.634-1.764,3.922c-1.51,1.286-2.231-0.17-1.734-0.489c-4.974,3.198-3.99,2.366-3.817,7.453
		c0.078,2.286-0.099,4.098,0.257,6.46c0.232,1.542-0.719,1.474-0.427,2.667c0.196,0.802,1.501,0.921,1.514,2.161
		c0.051,4.949,0.844,1.479-1.641,3.13c-0.821,0.546-4.492,1.482-4.642,1.68c-2.377,3.133,1.753,4.871-0.068,8.534
		c-1.935,3.892-5.617-0.657-9.256-2.62c-1.423-0.768-4.582-1.378-5.092-1.875c-0.131-0.401-0.16-0.712-0.235-1.193
		c-1.959,0.81-12.558,5.379-14.871,3.354c-0.812-0.711-1.245-3.354-1.262-4.75c-0.02-1.613,1.101-3.88,1.585-5.664
		c1.323-4.875-3.61-13.156-1.771-16.204c3.838-6.362,2.076-7.877-5.789-6.785C542.969,451.401,541.291,458.001,536.96,461.555"/>
	<path vector-effect="none" fill="none" stroke="#000000" stroke-linecap="square" stroke-linejoin="bevel" d="M510.492,448.182
		c2.78,1.896,9.24,9.338,12.206,9.624c4.341,0.42,6.116-8.881,10.859-1.813c2.156,3.214-1.586,8.71-2.677,12.959
		c-0.631,2.456-3.2,9.054-3.583,12.63c-0.058,0.535-2.029,2.838-1.753,3.631c0.871,2.496,8.206,3.956,10.466,5.081
		c4.43,2.204,10.269,0.593,15.105,1.756c7.854,1.888,9.2,4.504,8.723,11.964c-0.138,2.157-0.807,4.943-0.694,7.002
		c0.07,1.283,0.601,3.949,0.601,4.036c0.006,1.847,0.719,4.539-0.147,6.915c-0.594,1.63-3.276,3.808-3.533,5.107
		c-0.526,2.665,0.796,3.781,1.772,6.21c-6.277-3.726-15.639-7.51-22.979-9.245c-5.59-1.321-24.685-2.357-26.363-5.987
		c-4.099,1.415-9.192-5.549-13.549-7.375c-5.438-2.279-10.569-2.017-14.289-6.073c0.278,0.571-1.064-1.379-1.444-2.034
		c-1.51-0.833-3.479-2.495-3.817-2.986c-1.938-0.545-4.581-1.964-6.744-3.006c0.178-0.454,0.641-0.018,0.488-0.763
		c-2.135,0.79-5.623-1.245-7.821-2.921c-2.128,0.282-5.66-1.626-8.414-2.194c2.541-3.158,5.235-8.147,8.426-10.39
		c3.828-2.69,4.185-9.903,7.816-11.905c4.824-2.659,17.696,3.341,20.766-2.815c1.266-2.536,3.188-2.609,5.284-4.269
		c1.701-1.347,3.12-1.951,4.959-3.853C503.358,454.156,505.242,443.702,510.492,448.182"/>
</g>
</svg>
